<?xml version="1.0" encoding="UTF-8" standalone="no"?>
<svg
   xmlns:dc="http://purl.org/dc/elements/1.1/"
   xmlns:cc="http://creativecommons.org/ns#"
   xmlns:rdf="http://www.w3.org/1999/02/22-rdf-syntax-ns#"
   xmlns:svg="http://www.w3.org/2000/svg"
   xmlns="http://www.w3.org/2000/svg"
   xmlns:sodipodi="http://sodipodi.sourceforge.net/DTD/sodipodi-0.dtd"
   xmlns:inkscape="http://www.inkscape.org/namespaces/inkscape"
   width="208.24901mm"
   height="429.36594mm"
   viewBox="0 0 208.24901 429.36594"
   version="1.1"
   id="svg3342"
   inkscape:version="1.0.1 (3bc2e813f5, 2020-09-07)"
   sodipodi:docname="Orientation.svg">
  <defs
     id="defs3336">
    <marker
       style="overflow:visible"
       id="marker4664"
       refX="0"
       refY="0"
       orient="auto"
       inkscape:stockid="Arrow1Lend"
       inkscape:isstock="true">
      <path
         transform="matrix(-0.8,0,0,-0.8,-10,0)"
         style="fill:#000000;fill-opacity:1;fill-rule:evenodd;stroke:#000000;stroke-width:1pt;stroke-opacity:1"
         d="M 0,0 5,-5 -12.5,0 5,5 Z"
         id="path4662" />
    </marker>
    <marker
       style="overflow:visible"
       id="marker4610"
       refX="0"
       refY="0"
       orient="auto"
       inkscape:stockid="Arrow1Lend"
       inkscape:isstock="true"
       inkscape:collect="always">
      <path
         transform="matrix(-0.8,0,0,-0.8,-10,0)"
         style="fill:#000000;fill-opacity:1;fill-rule:evenodd;stroke:#000000;stroke-width:1pt;stroke-opacity:1"
         d="M 0,0 5,-5 -12.5,0 5,5 Z"
         id="path4608" />
    </marker>
    <marker
       style="overflow:visible"
       id="marker4536"
       refX="0"
       refY="0"
       orient="auto"
       inkscape:stockid="Arrow1Lend"
       inkscape:isstock="true"
       inkscape:collect="always">
      <path
         transform="matrix(-0.8,0,0,-0.8,-10,0)"
         style="fill:#000000;fill-opacity:1;fill-rule:evenodd;stroke:#000000;stroke-width:1pt;stroke-opacity:1"
         d="M 0,0 5,-5 -12.5,0 5,5 Z"
         id="path4534" />
    </marker>
    <marker
       style="overflow:visible"
       id="marker4494"
       refX="0"
       refY="0"
       orient="auto"
       inkscape:stockid="Arrow1Lend"
       inkscape:isstock="true"
       inkscape:collect="always">
      <path
         transform="matrix(-0.8,0,0,-0.8,-10,0)"
         style="fill:#000000;fill-opacity:1;fill-rule:evenodd;stroke:#000000;stroke-width:1pt;stroke-opacity:1"
         d="M 0,0 5,-5 -12.5,0 5,5 Z"
         id="path4492" />
    </marker>
    <marker
       style="overflow:visible"
       id="marker4408"
       refX="0"
       refY="0"
       orient="auto"
       inkscape:stockid="Arrow1Lend"
       inkscape:isstock="true"
       inkscape:collect="always">
      <path
         transform="matrix(-0.8,0,0,-0.8,-10,0)"
         style="fill:#000000;fill-opacity:1;fill-rule:evenodd;stroke:#000000;stroke-width:1pt;stroke-opacity:1"
         d="M 0,0 5,-5 -12.5,0 5,5 Z"
         id="path4406" />
    </marker>
    <marker
       style="overflow:visible"
       id="Arrow1Lend"
       refX="0"
       refY="0"
       orient="auto"
       inkscape:stockid="Arrow1Lend"
       inkscape:isstock="true"
       inkscape:collect="always">
      <path
         transform="matrix(-0.8,0,0,-0.8,-10,0)"
         style="fill:#000000;fill-opacity:1;fill-rule:evenodd;stroke:#000000;stroke-width:1pt;stroke-opacity:1"
         d="M 0,0 5,-5 -12.5,0 5,5 Z"
         id="path4009" />
    </marker>
    <marker
       style="overflow:visible"
       id="Arrow1Lend-0"
       refX="0"
       refY="0"
       orient="auto"
       inkscape:stockid="Arrow1Lend"
       inkscape:isstock="true">
      <path
         transform="matrix(-0.8,0,0,-0.8,-10,0)"
         style="fill:#000000;fill-opacity:1;fill-rule:evenodd;stroke:#000000;stroke-width:1pt;stroke-opacity:1"
         d="M 0,0 5,-5 -12.5,0 5,5 Z"
         id="path4009-6" />
    </marker>
  </defs>
  <sodipodi:namedview
     id="base"
     pagecolor="#ffffff"
     bordercolor="#666666"
     borderopacity="1.0"
     inkscape:pageopacity="0.0"
     inkscape:pageshadow="2"
     inkscape:zoom="0.98994949"
     inkscape:cx="406.08981"
     inkscape:cy="337.36737"
     inkscape:document-units="mm"
     inkscape:current-layer="layer1"
     inkscape:document-rotation="0"
     showgrid="false"
     inkscape:window-width="1714"
     inkscape:window-height="1040"
     inkscape:window-x="1972"
     inkscape:window-y="0"
     inkscape:window-maximized="0"
     fit-margin-top="0"
     fit-margin-left="0"
     fit-margin-right="0"
     fit-margin-bottom="0" />
  <metadata
     id="metadata3339">
    <rdf:RDF>
      <cc:Work
         rdf:about="">
        <dc:format>image/svg+xml</dc:format>
        <dc:type
           rdf:resource="http://purl.org/dc/dcmitype/StillImage" />
        <dc:title></dc:title>
      </cc:Work>
    </rdf:RDF>
  </metadata>
  <g
     inkscape:label="Layer 1"
     inkscape:groupmode="layer"
     id="layer1"
     transform="translate(-9.1899687,-5.8556358)">
    <text
       xml:space="preserve"
       style="font-size:11.2889px;line-height:1.25;font-family:sans-serif;letter-spacing:0px;word-spacing:0px;stroke-width:0.264583"
       x="8.8198938"
       y="14.432554"
       id="text3346"><tspan
         sodipodi:role="line"
         id="tspan3344"
         x="8.8198938"
         y="14.432554"
         style="font-size:11.2889px;stroke-width:0.264583">Orientation And Orientability</tspan></text>
    <circle
       style="fill:#000000;stroke:#000000;stroke-width:0.499999"
       id="path3348"
       cx="34.745037"
       cy="43.56493"
       r="2.1381562" />
    <circle
       style="fill:#000000;stroke:#000000;stroke-width:0.499999"
       id="path3348-5"
       cx="39.823158"
       cy="72.697311"
       r="2.1381562" />
    <circle
       style="fill:#000000;stroke:#000000;stroke-width:0.499999"
       id="path3348-1"
       cx="75.904549"
       cy="67.619194"
       r="2.1381562" />
    <circle
       style="fill:#000000;stroke:#000000;stroke-width:0.499999"
       id="path3348-0"
       cx="83.92263"
       cy="44.099472"
       r="2.1381562" />
    <path
       style="fill:none;stroke:#000000;stroke-width:0.264583px;stroke-linecap:butt;stroke-linejoin:miter;stroke-opacity:1"
       d="M 33.67596,43.832203 39.823159,73.766388 75.370007,67.88646 84.189901,43.564933 34.745039,43.297663"
       id="path3413" />
    <text
       xml:space="preserve"
       style="font-size:7.05556px;line-height:1.25;font-family:sans-serif;letter-spacing:0px;word-spacing:0px;stroke-width:0.264583"
       x="22.985178"
       y="43.56493"
       id="text3417"><tspan
         sodipodi:role="line"
         id="tspan3415"
         x="22.985178"
         y="43.56493"
         style="stroke-width:0.264583">a</tspan></text>
    <text
       xml:space="preserve"
       style="font-size:7.05556px;line-height:1.25;font-family:sans-serif;letter-spacing:0px;word-spacing:0px;stroke-width:0.264583"
       x="29.399647"
       y="77.240891"
       id="text3421"><tspan
         sodipodi:role="line"
         id="tspan3419"
         x="29.399647"
         y="77.240891"
         style="stroke-width:0.264583">b</tspan></text>
    <text
       xml:space="preserve"
       style="font-size:7.05556px;line-height:1.25;font-family:sans-serif;letter-spacing:0px;word-spacing:0px;stroke-width:0.264583"
       x="74.835464"
       y="77.240891"
       id="text3425"><tspan
         sodipodi:role="line"
         id="tspan3423"
         x="74.835464"
         y="77.240891"
         style="stroke-width:0.264583">c</tspan></text>
    <text
       xml:space="preserve"
       style="font-size:7.05556px;line-height:1.25;font-family:sans-serif;letter-spacing:0px;word-spacing:0px;stroke-width:0.264583"
       x="87.931671"
       y="39.555889"
       id="text3429"><tspan
         sodipodi:role="line"
         id="tspan3427"
         x="87.931671"
         y="39.555889"
         style="stroke-width:0.264583">d</tspan></text>
    <text
       xml:space="preserve"
       style="font-size:7.05556px;line-height:1.25;font-family:sans-serif;letter-spacing:0px;word-spacing:0px;stroke-width:0.264583"
       x="16.570711"
       y="28.063299"
       id="text3433"><tspan
         sodipodi:role="line"
         id="tspan3431"
         x="16.570711"
         y="28.063299"
         style="stroke-width:0.264583">Def. Orientation</tspan></text>
    <text
       xml:space="preserve"
       style="font-size:7.05556px;line-height:1.25;font-family:sans-serif;letter-spacing:0px;word-spacing:0px;stroke-width:0.264583"
       x="18.174328"
       y="97.018837"
       id="text3437"><tspan
         sodipodi:role="line"
         id="tspan3435"
         x="18.174328"
         y="97.018837"
         style="stroke-width:0.264583">abcd, bcda, cdab, dabc</tspan></text>
    <path
       style="fill:none;stroke:#000000;stroke-width:0.264583px;stroke-linecap:butt;stroke-linejoin:miter;stroke-opacity:1"
       d="m 47.039437,45.970359 c -1.613294,-0.136586 0.05395,1.015129 -0.267269,1.336347 -0.133636,0.133635 -0.400905,0.133635 -0.53454,0.267269 -0.26474,0.264742 -0.367345,1.703694 -0.534538,1.870887 -0.063,0.063 -0.204274,-0.063 -0.267272,0 -0.133633,0.133636 0.133636,0.668173 0,0.801809 -0.06299,0.063 -0.204271,-0.063 -0.267268,0 -0.264457,0.264456 -0.80181,2.702655 -0.80181,2.939965 0,0.498787 -0.05705,0.381381 -0.267268,0.801807 -0.168717,0.337434 0.256577,1.347041 0,1.603618 -0.063,0.063 -0.227428,-0.07968 -0.267269,0 -0.332322,0.664644 0.10125,4.045524 0.267269,4.543581 0.204557,0.613675 0.776652,1.01877 1.069078,1.603619 0.203112,0.406222 0.524311,1.326118 0.801809,1.603615 0.178178,0.178181 0.623628,0.08909 0.801809,0.267272 0.55299,0.55299 -0.845042,-0.02162 0.267269,0.534538 0.161369,0.08068 0.678259,-0.12355 0.801809,0 0.063,0.063 -0.063,0.204274 0,0.267268 0.133633,0.133636 0.668173,-0.133633 0.801807,0 0.063,0.063 -0.063,0.204275 0,0.267272 0.178181,0.178178 0.890899,-0.178181 1.069078,0 0.125992,0.125992 -0.125992,0.408546 0,0.534538 0.314026,0.314026 3.285265,0.07803 3.474505,0.267268 0.063,0.063 -0.063,0.204275 0,0.267272 0.03727,0.03727 3.462483,0 3.741772,0 0.983242,0 2.24536,0.192373 3.207234,0 0.747827,-0.149566 1.652162,-0.283451 2.405428,-0.53454 0.660889,-0.220298 1.155388,-0.682559 1.870884,-0.80181 0.263634,-0.04394 0.542521,0.06482 0.80181,0 1.036526,-0.25913 1.937366,-1.269415 2.939965,-1.603615 0.169037,-0.05635 0.365503,0.05635 0.534538,0 0.03167,-0.01056 2.832584,-2.565316 2.939965,-2.672697 0.145907,-0.145904 0.724493,-1.1044 0.801809,-1.336347 0.05635,-0.169037 -0.07968,-0.375171 0,-0.53454 0.03984,-0.07968 0.178178,0 0.267269,0 0.08909,-0.08909 0.227428,-0.147741 0.267269,-0.267269 0.112691,-0.338071 -0.08643,-0.723357 0,-1.069078 0.322659,-1.290629 0.127013,0.01326 0.53454,-0.801809 0.225692,-0.451382 0.169572,-2.965789 0,-3.474503 -0.101589,-0.304771 -1.087943,-0.677606 -1.336347,-0.801809 -0.225382,-0.112689 -0.295486,-0.454853 -0.53454,-0.534538 -0.169034,-0.05635 -0.375169,0.07969 -0.534538,0 -0.07968,-0.03984 0.063,-0.204274 0,-0.267269 -0.125992,-0.125992 -0.375171,0.07969 -0.53454,0 -0.320723,-0.160364 -0.481084,-0.641448 -0.801809,-0.801809 -0.159367,-0.07968 -0.408546,0.125992 -0.534538,0 -0.063,-0.063 0.07968,-0.227428 0,-0.267269 -0.449998,-0.225002 -1.497346,0.106273 -1.870887,-0.267271 -0.063,-0.063 0.063,-0.204272 0,-0.267269 -0.292521,-0.292521 -1.272019,-0.0462 -1.603616,-0.267269 -0.358098,-0.238731 -0.668361,-0.668237 -1.069078,-0.801809 -0.271756,-0.09059 -6.24087,-0.44087 -6.414471,-0.267269 -0.063,0.06299 0.063,0.204274 0,0.267269 -0.224136,0.224139 -0.834832,0.111106 -1.069078,0.267269 -0.393136,0.262093 -0.954775,1.107746 -1.069078,1.336349 -0.160361,0.320723 -0.641445,0.481084 -0.801807,0.801807 -0.222803,0.445606 -0.04891,1.166899 -0.267271,1.603618 -0.03984,0.07968 -0.187584,-0.03984 -0.267269,0 -0.438608,0.219305 -0.267269,0.93377 -0.267269,1.336347 -2.911656,-0.422856 -1.18368,-1.183679 -1.870886,-1.870886 -0.445567,-0.445567 -0.769881,-0.502611 -1.069078,-0.801808 -0.125992,-0.125992 0.125992,-0.408547 0,-0.534539 -0.063,-0.063 -0.17818,0 -0.26727,0"
       id="path3439" />
    <path
       style="fill:none;stroke:#000000;stroke-width:0.264583px;stroke-linecap:butt;stroke-linejoin:miter;stroke-opacity:1"
       d="m 54.522983,53.721174 c 0.475806,0.260326 3.23772,0.236786 3.474503,0 0.063,-0.063 -0.063,-0.204274 0,-0.267269 0.169532,-0.169532 0.846553,0.111263 1.069078,0 0.411642,-0.205819 0.444328,-0.53454 0.801809,-0.53454"
       id="path3441" />
    <path
       style="fill:none;stroke:#000000;stroke-width:0.265;stroke-linecap:butt;stroke-linejoin:miter;stroke-miterlimit:4;stroke-dasharray:none;stroke-opacity:1;marker-end:url(#Arrow1Lend)"
       d="M 59.066564,59.066564 62.808339,33.67596"
       id="path3443" />
    <circle
       style="fill:#000000;stroke:#000000;stroke-width:0.499999"
       id="path3348-16"
       cx="155.76421"
       cy="37.217907"
       r="2.1381562" />
    <circle
       style="fill:#000000;stroke:#000000;stroke-width:0.499999"
       id="path3348-5-1"
       cx="160.84233"
       cy="66.350288"
       r="2.1381562" />
    <circle
       style="fill:#000000;stroke:#000000;stroke-width:0.499999"
       id="path3348-1-0"
       cx="196.92372"
       cy="61.272171"
       r="2.1381562" />
    <circle
       style="fill:#000000;stroke:#000000;stroke-width:0.499999"
       id="path3348-0-5"
       cx="204.9418"
       cy="37.752449"
       r="2.1381562" />
    <path
       style="fill:none;stroke:#000000;stroke-width:0.264583px;stroke-linecap:butt;stroke-linejoin:miter;stroke-opacity:1"
       d="m 154.69513,37.485182 6.1472,29.934185 35.54685,-5.879928 8.8199,-24.321527 -49.44487,-0.26727"
       id="path3413-0" />
    <text
       xml:space="preserve"
       style="font-size:7.05556px;line-height:1.25;font-family:sans-serif;letter-spacing:0px;word-spacing:0px;stroke-width:0.264583"
       x="144.00435"
       y="37.217907"
       id="text3417-6"><tspan
         sodipodi:role="line"
         id="tspan3415-2"
         x="144.00435"
         y="37.217907"
         style="stroke-width:0.264583">a</tspan></text>
    <text
       xml:space="preserve"
       style="font-size:7.05556px;line-height:1.25;font-family:sans-serif;letter-spacing:0px;word-spacing:0px;stroke-width:0.264583"
       x="150.41882"
       y="70.893875"
       id="text3421-8"><tspan
         sodipodi:role="line"
         id="tspan3419-8"
         x="150.41882"
         y="70.893875"
         style="stroke-width:0.264583">b</tspan></text>
    <text
       xml:space="preserve"
       style="font-size:7.05556px;line-height:1.25;font-family:sans-serif;letter-spacing:0px;word-spacing:0px;stroke-width:0.264583"
       x="195.85463"
       y="70.893875"
       id="text3425-9"><tspan
         sodipodi:role="line"
         id="tspan3423-4"
         x="195.85463"
         y="70.893875"
         style="stroke-width:0.264583">c</tspan></text>
    <text
       xml:space="preserve"
       style="font-size:7.05556px;line-height:1.25;font-family:sans-serif;letter-spacing:0px;word-spacing:0px;stroke-width:0.264583"
       x="208.95084"
       y="33.208866"
       id="text3429-0"><tspan
         sodipodi:role="line"
         id="tspan3427-2"
         x="208.95084"
         y="33.208866"
         style="stroke-width:0.264583">d</tspan></text>
    <text
       xml:space="preserve"
       style="font-size:7.05556px;line-height:1.25;font-family:sans-serif;letter-spacing:0px;word-spacing:0px;stroke-width:0.264583"
       x="135.77293"
       y="98.622459"
       id="text4396"><tspan
         sodipodi:role="line"
         id="tspan4394"
         x="135.77293"
         y="98.622459"
         style="stroke-width:0.264583">adcb, dcba, cbad, badc</tspan></text>
    <path
       style="fill:none;stroke:#000000;stroke-width:0.264583px;stroke-linecap:butt;stroke-linejoin:miter;stroke-opacity:1"
       d="m 162.76714,42.228584 c 4.27652,-0.392406 8.35751,-0.762783 12.56167,-1.603615 1.64933,-0.329867 3.75668,0.529566 5.34539,0 0.97812,-0.326041 5.17379,-0.591741 6.1472,-0.267272 0.23905,0.07968 0.29548,0.454856 0.53454,0.53454 0.61097,0.203658 1.2509,-0.04273 1.87088,0.267269 0.39426,0.197131 1.33579,0.801251 1.60362,1.069078 0.15102,0.151016 0.33544,0.869982 0.53454,1.069078 0.063,0.063 0.22743,-0.07968 0.26727,0 0.0797,0.159369 -0.0797,0.375172 0,0.534541 0.006,0.01114 0.99332,0.841811 1.06908,1.069078 0.0563,0.169034 -0.0797,0.375168 0,0.534537 0.0398,0.07969 0.20427,-0.06299 0.26727,0 0.34407,0.344073 0,2.70142 0,3.207235 0,0.458231 0.20194,1.467006 0,1.870887 -0.21643,0.432848 -0.65606,0.899096 -0.80181,1.336347 -0.21398,0.641934 0.0574,1.278974 -0.53454,1.870887 -0.43736,0.437364 -0.7665,0.689179 -1.33635,1.069078 -0.61402,0.409345 0.11461,0.152665 -0.53454,0.801809 -0.25813,0.258136 -1.0928,0.395372 -1.33635,0.534538 -0.82925,0.473863 -1.54115,1.171482 -2.40542,1.603618 -1.15081,0.575406 -2.51906,0.87783 -3.74177,1.336347 -0.37306,0.139896 -0.68599,0.425085 -1.06908,0.534541 -1.00321,0.286628 -2.19137,0.0641 -3.20724,0.267268 -2.62462,0.524926 -6.00262,1.213649 -7.75081,-0.534537 -0.54435,-0.544351 -0.3327,-0.46355 -0.53454,-1.069081 -0.27808,-0.834231 -0.17818,0.08909 -0.53454,-0.267269 -0.0708,-0.07075 0,-0.691756 0,-0.801809 0,-1.145363 -0.27628,-2.636636 0,-3.741772 0.10193,-0.407725 0.34776,-1.230056 0.53454,-1.603618 0.14251,-0.285017 0.9424,-0.407861 1.33635,-0.801807 0.35398,-0.353991 -0.16534,-2.138156 0.53453,-2.138156 -1.85216,-0.941544 -1.42376,0.830948 -2.13815,1.069078 -0.63514,0.211712 -0.48542,-0.316386 -1.06908,0.267269 -0.063,0.063 0.063,0.204274 0,0.26727 -0.12599,0.125992 -0.37517,-0.07969 -0.53454,0 -0.56156,0.280784 0.005,0.529346 -0.26727,0.801808 -0.28667,0.28667 -0.96,0.534539 -1.33634,0.534539"
       id="path4398" />
    <path
       style="fill:none;stroke:#000000;stroke-width:0.264583px;stroke-linecap:butt;stroke-linejoin:miter;stroke-opacity:1"
       d="m 171.58703,48.910324 c 0.87771,0.262297 2.07555,1.006464 2.6727,1.603616 0.0891,0.08909 0.17818,0.712719 0.26727,0.801809 0.12599,0.125992 0.40855,-0.125992 0.53454,0 0.22713,0.227134 0.78712,1.000263 0.53454,0.801809 -1.34568,-1.057314 -2.6727,-2.138156 -4.00905,-3.207234"
       id="path4400" />
    <path
       style="fill:none;stroke:#000000;stroke-width:0.264583px;stroke-linecap:butt;stroke-linejoin:miter;stroke-opacity:1;marker-end:url(#marker4408)"
       d="m 181.20874,48.375784 2.67269,30.468725"
       id="path4404" />
    <text
       xml:space="preserve"
       style="font-size:7.05556px;line-height:1.25;font-family:sans-serif;letter-spacing:0px;word-spacing:0px;stroke-width:0.264583"
       x="14.521936"
       y="119.70816"
       id="text3433-9"><tspan
         sodipodi:role="line"
         id="tspan3431-5"
         x="14.521936"
         y="119.70816"
         style="stroke-width:0.264583">Def. Consistent Orientation of a manifold mesh: </tspan><tspan
         sodipodi:role="line"
         x="14.521936"
         y="128.5276"
         style="stroke-width:0.264583"
         id="tspan4944">shared edges are specified in the opposite order</tspan></text>
    <ellipse
       style="fill:#000000;stroke:#000000;stroke-width:0.264999;stroke-miterlimit:4;stroke-dasharray:none"
       id="path4458"
       cx="39.555889"
       cy="157.02084"
       rx="2.9399648"
       ry="2.80633" />
    <circle
       style="fill:#000000;stroke:#000000;stroke-width:0.264999;stroke-miterlimit:4;stroke-dasharray:none"
       id="path4460"
       cx="86.4617"
       cy="158.35719"
       r="2.5390604" />
    <ellipse
       style="fill:#000000;stroke:#000000;stroke-width:0.264999;stroke-miterlimit:4;stroke-dasharray:none"
       id="path4462"
       cx="54.656616"
       cy="184.54961"
       rx="3.0735996"
       ry="2.80633" />
    <ellipse
       style="fill:#000000;stroke:#000000;stroke-width:0.264999;stroke-miterlimit:4;stroke-dasharray:none"
       id="path4464"
       cx="123.21125"
       cy="169.44888"
       rx="2.4054255"
       ry="2.6726952" />
    <path
       style="fill:none;stroke:#000000;stroke-width:0.264583px;stroke-linecap:butt;stroke-linejoin:miter;stroke-opacity:1"
       d="M 38.75408,157.95629 56.1266,186.28685 85.258979,159.02537 Z"
       id="path4466" />
    <path
       style="fill:none;stroke:#000000;stroke-width:0.264583px;stroke-linecap:butt;stroke-linejoin:miter;stroke-opacity:1"
       d="M 85.258979,159.02537 123.74579,170.78522 56.1266,186.28685"
       id="path4468" />
    <text
       xml:space="preserve"
       style="font-size:7.05556px;line-height:1.25;font-family:sans-serif;letter-spacing:0px;word-spacing:0px;stroke-width:0.264583"
       x="31.805073"
       y="149.9382"
       id="text4472"><tspan
         sodipodi:role="line"
         id="tspan4470"
         x="31.805073"
         y="149.9382"
         style="stroke-width:0.264583">a</tspan></text>
    <text
       xml:space="preserve"
       style="font-size:7.05556px;line-height:1.25;font-family:sans-serif;letter-spacing:0px;word-spacing:0px;stroke-width:0.264583"
       x="43.030392"
       y="190.56317"
       id="text4476"><tspan
         sodipodi:role="line"
         id="tspan4474"
         x="43.030392"
         y="190.56317"
         style="stroke-width:0.264583">b</tspan></text>
    <text
       xml:space="preserve"
       style="font-size:7.05556px;line-height:1.25;font-family:sans-serif;letter-spacing:0px;word-spacing:0px;stroke-width:0.264583"
       x="83.388092"
       y="149.9382"
       id="text4480"><tspan
         sodipodi:role="line"
         id="tspan4478"
         x="83.388092"
         y="149.9382"
         style="stroke-width:0.264583">c</tspan></text>
    <text
       xml:space="preserve"
       style="font-size:7.05556px;line-height:1.25;font-family:sans-serif;letter-spacing:0px;word-spacing:0px;stroke-width:0.264583"
       x="129.89299"
       y="176.13062"
       id="text4484"><tspan
         sodipodi:role="line"
         id="tspan4482"
         x="129.89299"
         y="176.13062"
         style="stroke-width:0.264583">d</tspan></text>
    <path
       style="fill:none;stroke:#000000;stroke-width:0.264583px;stroke-linecap:butt;stroke-linejoin:miter;stroke-opacity:1"
       d="m 58.532025,161.16352 c -1.436209,0.37564 -2.335668,0.23239 -3.474503,0.80181 -0.225383,0.11269 -0.324877,0.39476 -0.53454,0.53454 -0.234411,0.15627 -0.602597,0.0681 -0.801807,0.26727 -0.063,0.063 0.07969,0.22743 0,0.26727 -0.159369,0.0797 -0.408548,-0.126 -0.53454,0 -0.125992,0.12599 0.07968,0.37517 0,0.53454 -0.07968,0.15936 -0.408546,-0.12599 -0.534538,0 -0.140864,0.14086 -0.126407,0.39367 -0.267271,0.53453 -0.125992,0.126 -0.408546,-0.12599 -0.534538,0 -0.125992,0.126 0.159369,0.45486 0,0.53455 -0.328546,0.16427 -0.740532,0.10299 -1.069078,0.26726 -0.159369,0.0797 0.09884,0.38629 0,0.53454 -0.402074,0.60311 -0.782151,0.51488 -1.069078,0.80181 -0.05981,0.0598 -0.709046,1.68536 -0.801809,1.87089 -0.762358,1.52471 1.436216,4.64345 2.138156,5.34539 0.125992,0.12599 0.408548,-0.12599 0.53454,0 0.06299,0.063 -0.063,0.20427 0,0.26727 0.175215,0.17521 0.935175,0.13337 1.069078,0.26727 0.063,0.063 -0.063,0.20427 0,0.26727 0.125992,0.12599 0.408546,-0.12599 0.534538,0 0.063,0.063 -0.063,0.20427 0,0.26727 0.363437,0.36343 1.384194,0.0239 1.870887,0.26727 0.217321,0.10866 0.221141,0.42396 0.534538,0.26727 0.112691,-0.0564 0.15458,-0.21093 0.267271,-0.26727 0.159369,-0.0797 0.408546,0.12599 0.534538,0 0.063,-0.063 -0.063,-0.20428 0,-0.26727 0.275479,-0.27548 1.595408,0.008 1.870887,-0.26727 0.17499,-0.17499 0.166214,-0.61765 0.534538,-0.80181 0.450596,-0.2253 1.114192,-0.0451 1.603618,-0.53454 0.125992,-0.12599 -0.125992,-0.40855 0,-0.53454 0.133636,-0.13364 0.400905,-0.13364 0.534538,-0.26727 0.125995,-0.12599 -0.07968,-0.37517 0,-0.53454 0.155668,-0.31133 0.378873,-0.49047 0.53454,-0.80181 0.08069,-0.16137 -0.123549,-0.67826 0,-0.8018 0.063,-0.063 0.204275,0.063 0.267269,0 0.11117,-0.11117 0.11117,-2.56153 0,-2.6727 -0.222723,-0.22272 -0.579083,-0.31182 -0.801809,-0.53454 -0.063,-0.063 0.063,-0.20427 0,-0.26727 -0.125992,-0.12599 -0.408546,0.12599 -0.534538,0 -0.285612,-0.28561 0.379942,-0.53454 -0.267269,-0.53454"
       id="path4486" />
    <path
       style="fill:none;stroke:#000000;stroke-width:0.264583px;stroke-linecap:butt;stroke-linejoin:miter;stroke-opacity:1"
       d="m 60.135643,165.97437 c -0.445449,1.69271 -0.867881,3.39164 -1.336349,5.07812 -0.04769,0.17168 0,-0.35636 0,-0.53454 0,-0.19532 0.191171,-1.45141 0.267271,-1.60361 0.160362,-0.32073 0.641446,-0.48109 0.801807,-0.80181 0.12346,-0.24692 0.130842,-0.52895 0.267271,-0.80181 0.184997,-0.36999 -0.311837,-1.01152 0,-1.33635 2.420608,0.7358 9.181224,2.70037 0,0"
       id="path4488" />
    <path
       style="fill:none;stroke:#000000;stroke-width:0.264583px;stroke-linecap:butt;stroke-linejoin:miter;stroke-opacity:1;marker-end:url(#marker4494)"
       d="M 54.522982,168.11253 53.721175,142.72192"
       id="path4490" />
    <path
       style="fill:none;stroke:#000000;stroke-width:0.264583px;stroke-linecap:butt;stroke-linejoin:miter;stroke-opacity:1;marker-end:url(#marker4536)"
       d="M 86.060786,171.31976 102.09696,141.92011"
       id="path4532" />
    <path
       style="fill:none;stroke:#000000;stroke-width:0.264583px;stroke-linecap:butt;stroke-linejoin:miter;stroke-opacity:1"
       d="m 79.913589,167.31072 c -0.35636,0.26727 -0.7541,0.48683 -1.069078,0.80181 -0.199213,0.19921 -0.110998,0.56739 -0.267272,0.80181 -0.342019,0.51303 -0.966118,0.84271 -1.336347,1.33634 -0.401352,0.53514 -1.518486,4.17931 -1.069078,5.07813 0.329793,0.65958 0.864301,0.56578 1.336347,0.8018 2.902495,1.45125 4.907471,1.79811 8.552624,1.06908 0.297001,-0.0594 0.770703,0.0995 1.069079,0 0.280587,-0.0935 3.152338,-1.01418 3.207234,-1.06908 0.125994,-0.12599 -0.07968,-0.37517 0,-0.53454 0.125994,-0.25198 0.602599,-0.068 0.801809,-0.26726 0.344546,-0.34455 1.603618,-2.68713 1.603618,-3.20724 0,-0.30856 0.928489,-2.93996 0.801809,-2.93996 -0.08909,0 0,0.17817 0,0.26726 -0.293343,0.63109 -0.821402,0.11475 -1.202712,0.26728 -0.381968,0.15278 -0.56581,0.75062 -0.935444,0.93544 -0.256434,0.12822 -0.671452,0.40418 -0.801808,0.53454 -0.0315,0.0315 0.0315,0.10214 0,0.13363 -0.063,0.063 -0.204274,-0.063 -0.26727,0 -0.08369,0.0837 0.0054,0.26187 -0.133635,0.40091"
       id="path4594" />
    <path
       style="fill:none;stroke:#000000;stroke-width:0.264583px;stroke-linecap:butt;stroke-linejoin:miter;stroke-opacity:1"
       d="m 93.544332,169.44887 c 0.452133,0.11768 2.300443,0.69683 2.672696,1.06908 0.04455,0.0445 0.08909,0.35636 0.133636,0.40091 0.17848,0.17848 0.400905,0.0146 0.400905,0.4009"
       id="path4596" />
    <text
       xml:space="preserve"
       style="font-size:7.05556px;line-height:1.25;font-family:sans-serif;letter-spacing:0px;word-spacing:0px;stroke-width:0.264583"
       x="36.348656"
       y="200.18488"
       id="text4600"><tspan
         sodipodi:role="line"
         id="tspan4598"
         x="36.348656"
         y="200.18488"
         style="stroke-width:0.264583">abc</tspan></text>
    <text
       xml:space="preserve"
       style="font-size:7.05556px;line-height:1.25;font-family:sans-serif;letter-spacing:0px;word-spacing:0px;stroke-width:0.264583"
       x="82.051743"
       y="200.18489"
       id="text4604"><tspan
         sodipodi:role="line"
         id="tspan4602"
         x="82.051743"
         y="200.18489"
         style="stroke-width:0.264583">cbd</tspan></text>
    <path
       style="fill:none;stroke:#000000;stroke-width:0.264583px;stroke-linecap:butt;stroke-linejoin:miter;stroke-opacity:1;marker-end:url(#marker4610)"
       d="M 57.730216,179.60512 76.171814,163.03441"
       id="path4606" />
    <path
       style="fill:none;stroke:#000000;stroke-width:0.264583px;stroke-linecap:butt;stroke-linejoin:miter;stroke-opacity:1;marker-end:url(#marker4664)"
       d="M 85.258979,165.43983 66.015571,180.6742"
       id="path4660" />
    <text
       xml:space="preserve"
       style="font-size:7.05556px;line-height:1.25;font-family:sans-serif;letter-spacing:0px;word-spacing:0px;stroke-width:0.264583"
       x="15.768901"
       y="218.62646"
       id="text4726"><tspan
         sodipodi:role="line"
         id="tspan4724"
         x="15.768901"
         y="218.62646"
         style="stroke-width:0.264583">Alg1: Consistently Orient</tspan></text>
    <text
       xml:space="preserve"
       style="font-size:7.05556px;line-height:1.25;font-family:sans-serif;letter-spacing:0px;word-spacing:0px;stroke-width:0.264583"
       x="15.768903"
       y="229.04999"
       id="text4730"><tspan
         sodipodi:role="line"
         id="tspan4728"
         x="15.768903"
         y="229.04999"
         style="stroke-width:0.264583">def Orient(T)</tspan><tspan
         sodipodi:role="line"
         x="15.768903"
         y="237.86943"
         style="stroke-width:0.264583"
         id="tspan4738">    T.visited = True</tspan><tspan
         sodipodi:role="line"
         x="15.768903"
         y="246.68889"
         style="stroke-width:0.264583"
         id="tspan4732">    for each neighbor N of T</tspan><tspan
         sodipodi:role="line"
         x="15.768903"
         y="255.50833"
         style="stroke-width:0.264583"
         id="tspan4744">         if not N.visited</tspan><tspan
         sodipodi:role="line"
         x="15.768903"
         y="264.32779"
         style="stroke-width:0.264583"
         id="tspan4740">             if T is not oriented consistently wrt N, flip N</tspan><tspan
         sodipodi:role="line"
         x="15.768903"
         y="273.14725"
         style="stroke-width:0.264583"
         id="tspan4746">             Orient(N)</tspan><tspan
         sodipodi:role="line"
         x="15.768903"
         y="281.96667"
         style="stroke-width:0.264583"
         id="tspan4736">         </tspan></text>
    <path
       style="fill:none;stroke:#000000;stroke-width:0.264583px;stroke-linecap:butt;stroke-linejoin:miter;stroke-opacity:1"
       d="m 32.339613,285.97838 10.958049,19.5107 -26.994221,0.8018 z"
       id="path4748" />
    <path
       style="fill:none;stroke:#000000;stroke-width:0.264583px;stroke-linecap:butt;stroke-linejoin:miter;stroke-opacity:1"
       d="m 32.339613,285.97838 40.090428,3.7418 -29.132379,15.7689 31.003267,23.78698 -1.603617,-39.55589"
       id="path4750" />
    <path
       style="fill:none;stroke:#000000;stroke-width:0.264583px;stroke-linecap:butt;stroke-linejoin:miter;stroke-opacity:1"
       d="M 43.297662,305.48908 25.925144,332.4833 74.300929,329.27606"
       id="path4752" />
    <path
       style="fill:none;stroke:#000000;stroke-width:0.264583px;stroke-linecap:butt;stroke-linejoin:miter;stroke-opacity:1"
       d="M 25.925144,332.4833 16.303441,306.29087"
       id="path4754" />
    <path
       style="fill:none;stroke:#000000;stroke-width:0.264583px;stroke-linecap:butt;stroke-linejoin:miter;stroke-opacity:1"
       d="m 74.300929,329.27606 40.624961,-26.72695 -42.22858,-12.82893 40.62497,-13.63076 1.60362,26.19242"
       id="path4756" />
    <path
       style="fill:none;stroke:#000000;stroke-width:0.264583px;stroke-linecap:butt;stroke-linejoin:miter;stroke-opacity:1"
       d="m 32.339613,285.97838 80.982667,-9.88896"
       id="path4758" />
    <ellipse
       style="fill:#000000;stroke:#000000;stroke-width:0.264999;stroke-miterlimit:4;stroke-dasharray:none"
       id="path4760"
       cx="60.536545"
       cy="307.09268"
       rx="2.80633"
       ry="2.4054255" />
    <text
       xml:space="preserve"
       style="font-size:7.05556px;line-height:1.25;font-family:sans-serif;letter-spacing:0px;word-spacing:0px;stroke-width:0.264583"
       x="12.294397"
       y="353.06305"
       id="text4787"><tspan
         sodipodi:role="line"
         id="tspan4785"
         x="12.294397"
         y="353.06305"
         style="stroke-width:0.264583">Def. Orientability of Manifold Mesh</tspan><tspan
         sodipodi:role="line"
         x="12.294397"
         y="361.88251"
         style="stroke-width:0.264583"
         id="tspan4789">It is possible to consistently orient</tspan></text>
    <path
       style="fill:none;stroke:#000000;stroke-width:0.264583px;stroke-linecap:butt;stroke-linejoin:miter;stroke-opacity:1"
       d="m 12.294398,354.93393 124.280332,0.8018"
       id="path4791" />
    <rect
       style="fill:none;stroke:#000000;stroke-width:0.264999;stroke-miterlimit:4;stroke-dasharray:none"
       id="rect4795"
       width="81.517204"
       height="38.754082"
       x="26.192413"
       y="387.5408" />
    <path
       style="fill:none;stroke:#000000;stroke-width:0.264583px;stroke-linecap:butt;stroke-linejoin:miter;stroke-opacity:1"
       d="m 51.04848,387.80807 0.534538,38.7541"
       id="path4797" />
    <path
       style="fill:none;stroke:#000000;stroke-width:0.264583px;stroke-linecap:butt;stroke-linejoin:miter;stroke-opacity:1"
       d="m 79.111778,387.54081 0.534541,38.75408"
       id="path4799" />
    <path
       style="fill:none;stroke:#000000;stroke-width:0.264583px;stroke-linecap:butt;stroke-linejoin:miter;stroke-opacity:1"
       d="M 26.192413,426.29489 51.04848,387.80807"
       id="path4801" />
    <path
       style="fill:none;stroke:#000000;stroke-width:0.264583px;stroke-linecap:butt;stroke-linejoin:miter;stroke-opacity:1"
       d="m 51.583018,426.56217 27.52876,-39.02136"
       id="path4803" />
    <path
       style="fill:none;stroke:#000000;stroke-width:0.264583px;stroke-linecap:butt;stroke-linejoin:miter;stroke-opacity:1"
       d="m 79.646319,426.29489 28.063301,-38.7541"
       id="path4805" />
    <ellipse
       style="fill:#000000;stroke:#000000;stroke-width:0.264999;stroke-miterlimit:4;stroke-dasharray:none"
       id="path4760-9"
       cx="25.925144"
       cy="426.29489"
       rx="2.80633"
       ry="2.4054255" />
    <ellipse
       style="fill:#000000;stroke:#000000;stroke-width:0.264999;stroke-miterlimit:4;stroke-dasharray:none"
       id="path4760-3"
       cx="26.994223"
       cy="387.00629"
       rx="2.80633"
       ry="2.4054255" />
    <ellipse
       style="fill:#000000;stroke:#000000;stroke-width:0.264999;stroke-miterlimit:4;stroke-dasharray:none"
       id="path4760-5"
       cx="50.781212"
       cy="387.80807"
       rx="2.80633"
       ry="2.4054255" />
    <ellipse
       style="fill:#000000;stroke:#000000;stroke-width:0.264999;stroke-miterlimit:4;stroke-dasharray:none"
       id="path4760-8"
       cx="51.850288"
       cy="426.56216"
       rx="2.80633"
       ry="2.4054255" />
    <ellipse
       style="fill:#000000;stroke:#000000;stroke-width:0.264999;stroke-miterlimit:4;stroke-dasharray:none"
       id="path4760-4"
       cx="79.111778"
       cy="387.27356"
       rx="2.80633"
       ry="2.4054255" />
    <ellipse
       style="fill:#000000;stroke:#000000;stroke-width:0.264999;stroke-miterlimit:4;stroke-dasharray:none"
       id="path4760-1"
       cx="79.913589"
       cy="425.76035"
       rx="2.80633"
       ry="2.4054255" />
    <ellipse
       style="fill:#000000;stroke:#000000;stroke-width:0.264999;stroke-miterlimit:4;stroke-dasharray:none"
       id="path4760-84"
       cx="107.17508"
       cy="387.27356"
       rx="2.80633"
       ry="2.4054255" />
    <ellipse
       style="fill:#000000;stroke:#000000;stroke-width:0.264999;stroke-miterlimit:4;stroke-dasharray:none"
       id="path4760-58"
       cx="107.17508"
       cy="426.02762"
       rx="2.80633"
       ry="2.4054255" />
    <text
       xml:space="preserve"
       style="font-size:7.05556px;line-height:1.25;font-family:sans-serif;letter-spacing:0px;word-spacing:0px;white-space:pre;inline-size:0;stroke-width:0.264583"
       x="10.958051"
       y="385.66995"
       id="text4866"><tspan
         id="tspan4864"
         x="10.958051"
         y="385.66995"
         style="stroke-width:0.264583">a</tspan></text>
    <text
       xml:space="preserve"
       style="font-size:7.05556px;line-height:1.25;font-family:sans-serif;letter-spacing:0px;word-spacing:0px;stroke-width:0.264583"
       x="8.5526257"
       y="428.16577"
       id="text4870"><tspan
         sodipodi:role="line"
         id="tspan4868"
         x="8.5526257"
         y="428.16577"
         style="stroke-width:0.264583">b</tspan></text>
    <text
       xml:space="preserve"
       style="font-size:7.05556px;line-height:1.25;font-family:sans-serif;letter-spacing:0px;word-spacing:0px;stroke-width:0.264583"
       x="115.19317"
       y="386.20444"
       id="text4874"><tspan
         sodipodi:role="line"
         id="tspan4872"
         x="115.19317"
         y="386.20444"
         style="stroke-width:0.264583">b</tspan></text>
    <text
       xml:space="preserve"
       style="font-size:7.05556px;line-height:1.25;font-family:sans-serif;letter-spacing:0px;word-spacing:0px;stroke-width:0.264583"
       x="115.99497"
       y="429.23486"
       id="text4878"><tspan
         sodipodi:role="line"
         id="tspan4876"
         x="115.99497"
         y="429.23486"
         style="stroke-width:0.264583">a</tspan></text>
    <text
       xml:space="preserve"
       style="font-size:7.05556px;line-height:1.25;font-family:sans-serif;letter-spacing:0px;word-spacing:0px;stroke-width:0.264583"
       x="47.841244"
       y="435.11478"
       id="text4884"><tspan
         sodipodi:role="line"
         id="tspan4882"
         x="47.841244"
         y="435.11478"
         style="stroke-width:0.264583">c</tspan></text>
    <text
       xml:space="preserve"
       style="font-size:7.05556px;line-height:1.25;font-family:sans-serif;letter-spacing:0px;word-spacing:0px;stroke-width:0.264583"
       x="78.042702"
       y="435.11478"
       id="text4888"><tspan
         sodipodi:role="line"
         id="tspan4886"
         x="78.042702"
         y="435.11478"
         style="stroke-width:0.264583">d</tspan></text>
    <text
       xml:space="preserve"
       style="font-size:7.05556px;line-height:1.25;font-family:sans-serif;letter-spacing:0px;word-spacing:0px;stroke-width:0.264583"
       x="48.108513"
       y="380.32452"
       id="text4892"><tspan
         sodipodi:role="line"
         id="tspan4890"
         x="48.108513"
         y="380.32452"
         style="stroke-width:0.264583">e</tspan></text>
    <text
       xml:space="preserve"
       style="font-size:7.42696px;line-height:1.25;font-family:sans-serif;letter-spacing:0px;word-spacing:0px;stroke-width:0.27851"
       x="74.623779"
       y="401.46991"
       id="text4896"
       transform="scale(1.0526394,0.94999295)"><tspan
         sodipodi:role="line"
         id="tspan4894"
         x="74.623779"
         y="401.46991"
         style="stroke-width:0.27851">f</tspan></text>
    <path
       style="fill:none;stroke:#000000;stroke-width:0.264583px;stroke-linecap:butt;stroke-linejoin:miter;stroke-opacity:1"
       d="m 33.408691,392.0844 c -2.229183,-0.16119 -2.758652,1.14562 -3.207234,2.93997 -0.09663,0.3865 -0.437909,0.68254 -0.53454,1.06907 -0.09858,0.39434 -0.176925,4.01281 0,4.54359 0.675097,2.02528 -0.09651,-0.0965 0.53454,0.53453 0.164203,0.1642 0.17657,0.62283 0.534538,0.8018 1.289349,0.64468 2.437,1.06907 4.009043,1.06907 0.253381,0 0.847116,0.111 1.069078,0 0.783413,-0.39169 0.211608,-0.95774 0.53454,-1.60361 0.593725,-1.18745 0.206587,-2.52677 -0.267271,-3.47451 -0.160361,-0.3207 -0.641445,-0.48106 -0.801807,-0.80179 -0.206952,-0.41392 0.14959,-0.38494 -0.267271,-0.80182 0.120439,0.25466 -0.307945,4.54359 0.267271,4.54359"
       id="path4898" />
    <path
       style="fill:none;stroke:#000000;stroke-width:0.264583px;stroke-linecap:butt;stroke-linejoin:miter;stroke-opacity:1"
       d="m 35.012307,396.3607 c 1.304171,-0.11295 2.011516,0.33758 2.939965,0.80182 0.159369,0.0797 0.408548,-0.126 0.53454,0 0.063,0.063 -0.08909,0.26725 0,0.26725 0.08909,0 0.08515,-0.24106 0,-0.26725 -1.136046,-0.34957 -2.316337,-0.53454 -3.474505,-0.80182"
       id="path4900" />
    <text
       xml:space="preserve"
       style="font-size:7.05556px;line-height:1.25;font-family:sans-serif;letter-spacing:0px;word-spacing:0px;stroke-width:0.264583"
       x="25.657873"
       y="406.78424"
       id="text4904"><tspan
         sodipodi:role="line"
         id="tspan4902"
         x="25.657873"
         y="406.78424"
         style="stroke-width:0.264583">abe</tspan></text>
    <path
       style="fill:none;stroke:#000000;stroke-width:0.264583px;stroke-linecap:butt;stroke-linejoin:miter;stroke-opacity:1"
       d="m 45.43582,404.64606 c -1.054021,0.39073 -2.640238,1.03663 -3.474503,1.87089 -1.365851,1.36586 1.120653,-0.37277 -0.80181,1.06908 -0.159369,0.11954 -0.424037,0.10152 -0.53454,0.26728 -0.09883,0.14824 0.09884,0.38626 0,0.53454 -0.110501,0.16573 -0.393674,0.12639 -0.534538,0.26725 -0.756684,0.75668 -1.665337,2.9813 -1.870887,4.00905 -0.04707,0.23537 -0.103143,2.35386 0,2.40543 0.159369,0.0797 0.375171,-0.0797 0.53454,0 0.178179,0.0891 0.101516,0.42402 0.267269,0.53454 0.975506,0.65034 1.939203,1.37051 2.939966,1.87089 0.221961,0.11097 0.815697,0 1.069078,0 0.328033,0 1.237075,-0.16801 1.336346,-0.26728 0.125992,-0.12599 -0.159369,-0.45484 0,-0.53454 0.15937,-0.0797 0.375172,0.0797 0.534538,0 0.159369,-0.0797 -0.05634,-0.36549 0,-0.53453 0.536562,-1.60968 0.534541,-3.06303 0.534541,-4.81087 -0.356359,0.53454 -0.728587,1.05884 -1.069078,1.60363 -0.117713,0.18835 -0.714811,1.77762 -0.801809,1.60362 -0.201326,-0.40265 0.824875,-1.89395 1.069078,-2.13815 0.063,-0.063 0.213817,0.0713 0.26727,0 0.239054,-0.31875 0.164609,-1.21707 0.534539,-1.0691 1.187869,0.47515 0.435547,1.50464 1.069078,2.13817 0.238249,0.23825 0.785231,0.12535 1.069078,0.26727 0.660531,0.33027 -0.09226,0.26727 0.534539,0.26727"
       id="path4906" />
    <text
       xml:space="preserve"
       style="font-size:7.05556px;line-height:1.25;font-family:sans-serif;letter-spacing:0px;word-spacing:0px;stroke-width:0.264583"
       x="33.141422"
       y="424.15674"
       id="text4910"><tspan
         sodipodi:role="line"
         id="tspan4908"
         x="33.141422"
         y="424.15674"
         style="stroke-width:0.264583">ebc</tspan></text>
    <path
       style="fill:none;stroke:#000000;stroke-width:0.264583px;stroke-linecap:butt;stroke-linejoin:miter;stroke-opacity:1"
       d="m 64.679226,391.81711 c -1.071989,0.4368 -3.805814,-0.20322 -4.543584,0.53454 -0.310663,0.31068 -1.45909,2.9182 -1.870887,3.74179 -0.110913,0.22183 -0.08725,4.81637 0,5.07812 0.196916,0.59074 4.858782,1.82296 5.345393,1.33633 0.383188,-0.38316 0.457888,-2.2148 0.267269,-2.4054 -0.063,-0.063 -0.204274,0.063 -0.267269,0 -0.218202,-0.2182 -0.267272,-0.97325 -0.267272,-1.33636 0,-0.35637 0,-0.71271 0,-1.06907 0,-0.0891 0.08909,-0.26729 0,-0.26729 -0.02893,0 0.03776,0.99359 0,1.06908 -0.08909,0.1782 -0.466479,0.53456 -0.267268,0.53456 0.07876,0 -0.147188,-1.12913 0.267268,-1.33635 0.09789,-0.049 0.956646,0.11242 1.069078,0 0.04165,-0.0417 0.466276,-0.6028 0.80181,-0.26729 0.356359,0.35637 -0.44545,0.26729 0.267268,0.26729"
       id="path4912" />
    <text
       xml:space="preserve"
       style="font-size:7.05556px;line-height:1.25;font-family:sans-serif;letter-spacing:0px;word-spacing:0px;stroke-width:0.264583"
       x="52.652096"
       y="405.98239"
       id="text4916"><tspan
         sodipodi:role="line"
         id="tspan4914"
         x="52.652096"
         y="405.98239"
         style="stroke-width:0.264583">ecf</tspan></text>
    <text
       xml:space="preserve"
       style="font-size:7.05556px;line-height:1.25;font-family:sans-serif;letter-spacing:0px;word-spacing:0px;stroke-width:0.264583"
       x="63.877419"
       y="416.13864"
       id="text4920"><tspan
         sodipodi:role="line"
         id="tspan4918"
         x="63.877419"
         y="416.13864"
         style="stroke-width:0.264583">fcd</tspan></text>
    <text
       xml:space="preserve"
       style="font-size:7.05556px;line-height:1.25;font-family:sans-serif;letter-spacing:0px;word-spacing:0px;stroke-width:0.264583"
       x="82.586288"
       y="401.17154"
       id="text4924"><tspan
         sodipodi:role="line"
         id="tspan4922"
         x="82.586288"
         y="401.17154"
         style="stroke-width:0.264583">fdb</tspan></text>
    <text
       xml:space="preserve"
       style="font-size:7.05556px;line-height:1.25;font-family:sans-serif;letter-spacing:0px;word-spacing:0px;stroke-width:0.264583"
       x="91.940712"
       y="416.40591"
       id="text4928"><tspan
         sodipodi:role="line"
         id="tspan4926"
         x="91.940712"
         y="416.40591"
         style="stroke-width:0.264583">dab</tspan></text>
    <path
       style="fill:none;stroke:#000000;stroke-width:0.264583px;stroke-linecap:butt;stroke-linejoin:miter;stroke-opacity:1"
       d="m 73.499119,406.51694 c -1.171146,0.0138 -2.338165,-0.11149 -3.474503,0.26728 -1.317254,0.43908 -3.787881,1.8202 -4.810852,2.67269 -0.450284,0.37523 -1.086581,1.07783 -1.603616,1.33636 -0.159369,0.0797 -0.408549,-0.126 -0.53454,0 -0.125992,0.12599 0.05635,0.36549 0,0.53454 -0.119526,0.35856 -0.632773,0.46373 -0.80181,0.80179 -0.258082,0.51618 0.139946,1.57837 0,2.13815 -0.108492,0.434 -0.416507,0.73941 -0.267269,1.33636 0.193787,0.77515 0.208519,0.31279 0.534541,0.80182 1.338455,2.00768 2.74855,3.7797 4.81085,4.81084 0.157734,0.0789 0.622167,0 0.801809,0 0.326012,0 1.294926,0.15436 1.603616,0 0.820197,-0.41011 1.676087,-1.69868 1.870887,-2.67269 0.08332,-0.41659 -0.307774,-1.06908 0.267269,-1.06908 -0.613663,0.37086 -2.672693,1.1914 -2.672693,1.87089"
       id="path4930" />
    <path
       style="fill:none;stroke:#000000;stroke-width:0.264583px;stroke-linecap:butt;stroke-linejoin:miter;stroke-opacity:1"
       d="m 71.895501,417.475 c 0.7142,0.2063 4.459076,2.93997 4.810852,2.93997"
       id="path4932" />
    <path
       style="fill:none;stroke:#000000;stroke-width:0.264583px;stroke-linecap:butt;stroke-linejoin:miter;stroke-opacity:1"
       d="m 92.742524,390.2135 c -2.333879,-0.21304 -2.871076,0.0992 -4.81085,1.06908 -2.884339,1.44216 -4.829791,3.01572 -5.612662,6.14719 -0.07791,0.31163 -0.456631,0.4902 -0.534537,0.80182 -0.584764,2.33905 0.445002,4.43614 1.870887,6.1472 0.501425,0.60172 0.851421,1.76207 1.603616,2.13815 0.285088,0.14256 0.783992,-0.14253 1.069078,0 0.07968,0.0399 -0.063,0.20429 0,0.26728 0.10414,0.10414 0.905978,0 1.069078,0 0.209275,0 1.202986,0.13335 1.336349,0 0.125992,-0.12599 -0.125994,-0.40854 0,-0.53453 0.125992,-0.126 0.454854,0.15935 0.534538,0 0.04971,-0.0994 0.53454,-2.4224 0.53454,-2.67272 -0.2946,0.70195 -1.932927,0.32933 -2.405425,0.80183 -0.05799,0.058 -0.215161,0.50848 -0.26727,0.53453 -0.159369,0.0797 -0.37517,-0.0797 -0.534539,0 -0.07968,0.0399 -0.08909,0.26727 0,0.26727 0.08909,0 0,-0.17818 0,-0.26727"
       id="path4934" />
    <path
       style="fill:none;stroke:#000000;stroke-width:0.264583px;stroke-linecap:butt;stroke-linejoin:miter;stroke-opacity:1"
       d="m 89.802559,403.57697 c 0.178181,0.44545 0.234833,0.96173 0.53454,1.33636 0.139803,0.17475 0.848847,-0.11012 1.069078,0 0.209685,0.10485 0.98501,0.87238 0.534541,0.53454 -0.757632,-0.56822 -1.425441,-1.24728 -2.138159,-1.8709"
       id="path4936" />
    <path
       style="fill:none;stroke:#000000;stroke-width:0.264583px;stroke-linecap:butt;stroke-linejoin:miter;stroke-opacity:1"
       d="m 104.76965,404.37879 c -0.66219,0.42336 -1.9692,-0.35174 -2.67269,0 -0.0797,0.0399 0,0.17817 0,0.26728 -0.0891,0.0891 -0.14775,0.22741 -0.26727,0.26726 -1.19712,0.39904 -0.40491,0.32231 -1.60362,0.80182 -0.16543,0.0662 -0.386283,-0.0988 -0.534537,0 -0.165754,0.11049 -0.126408,0.39367 -0.267269,0.53454 -0.152421,0.1524 -0.873117,0.13663 -1.069078,0.26725 -0.560766,0.37386 -1.816934,1.67473 -2.405428,1.8709 -0.26453,0.0882 -0.860197,0.0584 -1.069078,0.26725 -0.72191,0.72192 -0.617551,1.06453 -1.336347,1.60364 -0.780484,0.58537 -0.367662,-0.13343 -1.069078,0.80179 -0.08909,0.17817 -0.178178,0.35637 -0.267269,0.53454 0,0.0891 0.03984,0.18759 0,0.26728 -1.484759,2.96953 -1.592969,4.56489 0,7.75081 0.33763,0.67527 0.512702,1.58179 1.069078,2.13815 1.493327,1.49334 4.744765,1.93699 6.1472,0.53454 0.546044,-0.54604 0.481113,-1.76403 0.801806,-2.40543 0.33027,-0.66051 0.26727,0.0923 0.26727,-0.53454 -1.495369,0.82178 -2.405423,0.95371 -2.405423,1.87091"
       id="path4938" />
    <path
       style="fill:none;stroke:#000000;stroke-width:0.264583px;stroke-linecap:butt;stroke-linejoin:miter;stroke-opacity:1"
       d="m 100.49334,419.34587 c 1.45388,1.42055 6.67283,5.00465 0,0"
       id="path4940" />
    <path
       style="fill:none;stroke:#000000;stroke-width:0.264583px;stroke-linecap:butt;stroke-linejoin:miter;stroke-opacity:1"
       d="m 13.898015,221.0319 93.277065,-0.80181"
       id="path4942" />
    <path
       style="fill:none;stroke:#000000;stroke-width:0.264583px;stroke-linecap:butt;stroke-linejoin:miter;stroke-opacity:1"
       d="M 16.570711,30.735995 72.162772,30.201457"
       id="path4994" />
    <path
       style="fill:none;stroke:#000000;stroke-width:0.264583px;stroke-linecap:butt;stroke-linejoin:miter;stroke-opacity:1"
       d="m 13.898015,121.34037 97.286105,-0.53455"
       id="path4996" />
  </g>
</svg>
