<?xml version="1.0" encoding="UTF-8" standalone="no"?>
<svg
   xmlns:dc="http://purl.org/dc/elements/1.1/"
   xmlns:cc="http://creativecommons.org/ns#"
   xmlns:rdf="http://www.w3.org/1999/02/22-rdf-syntax-ns#"
   xmlns:svg="http://www.w3.org/2000/svg"
   xmlns="http://www.w3.org/2000/svg"
   xmlns:sodipodi="http://sodipodi.sourceforge.net/DTD/sodipodi-0.dtd"
   xmlns:inkscape="http://www.inkscape.org/namespaces/inkscape"
   width="470.83057mm"
   height="532.84845mm"
   viewBox="0 0 470.83057 532.84845"
   version="1.1"
   id="svg1437"
   inkscape:version="1.0.1 (3bc2e813f5, 2020-09-07)"
   sodipodi:docname="2020_09_18_Notes.svg">
  <defs
     id="defs1431">
    <marker
       style="overflow:visible"
       id="marker3181"
       refX="0"
       refY="0"
       orient="auto"
       inkscape:stockid="Arrow1Lend"
       inkscape:isstock="true">
      <path
         transform="matrix(-0.8,0,0,-0.8,-10,0)"
         style="fill:#000000;fill-opacity:1;fill-rule:evenodd;stroke:#000000;stroke-width:1pt;stroke-opacity:1"
         d="M 0,0 5,-5 -12.5,0 5,5 Z"
         id="path3179" />
    </marker>
    <marker
       style="overflow:visible"
       id="marker3101"
       refX="0"
       refY="0"
       orient="auto"
       inkscape:stockid="Arrow1Lend"
       inkscape:isstock="true">
      <path
         transform="matrix(-0.8,0,0,-0.8,-10,0)"
         style="fill:#000000;fill-opacity:1;fill-rule:evenodd;stroke:#000000;stroke-width:1pt;stroke-opacity:1"
         d="M 0,0 5,-5 -12.5,0 5,5 Z"
         id="path3099" />
    </marker>
    <marker
       style="overflow:visible"
       id="marker2967"
       refX="0"
       refY="0"
       orient="auto"
       inkscape:stockid="Arrow1Lend"
       inkscape:isstock="true"
       inkscape:collect="always">
      <path
         transform="matrix(-0.8,0,0,-0.8,-10,0)"
         style="fill:#000000;fill-opacity:1;fill-rule:evenodd;stroke:#000000;stroke-width:1pt;stroke-opacity:1"
         d="M 0,0 5,-5 -12.5,0 5,5 Z"
         id="path2965" />
    </marker>
    <marker
       style="overflow:visible"
       id="marker2885"
       refX="0"
       refY="0"
       orient="auto"
       inkscape:stockid="Arrow1Lend"
       inkscape:isstock="true"
       inkscape:collect="always">
      <path
         transform="matrix(-0.8,0,0,-0.8,-10,0)"
         style="fill:#000000;fill-opacity:1;fill-rule:evenodd;stroke:#000000;stroke-width:1pt;stroke-opacity:1"
         d="M 0,0 5,-5 -12.5,0 5,5 Z"
         id="path2883" />
    </marker>
    <marker
       style="overflow:visible"
       id="Arrow2Lstart"
       refX="0"
       refY="0"
       orient="auto"
       inkscape:stockid="Arrow2Lstart"
       inkscape:isstock="true">
      <path
         transform="matrix(1.1,0,0,1.1,1.1,0)"
         d="M 8.7185878,4.0337352 -2.2072895,0.01601326 8.7185884,-4.0017078 c -1.7454984,2.3720609 -1.7354408,5.6174519 -6e-7,8.035443 z"
         style="fill:#000000;fill-opacity:1;fill-rule:evenodd;stroke:#000000;stroke-width:0.625;stroke-linejoin:round;stroke-opacity:1"
         id="path853" />
    </marker>
    <marker
       style="overflow:visible"
       id="marker2148"
       refX="0"
       refY="0"
       orient="auto"
       inkscape:stockid="Arrow1Lend"
       inkscape:isstock="true"
       inkscape:collect="always">
      <path
         transform="matrix(-0.8,0,0,-0.8,-10,0)"
         style="fill:#000000;fill-opacity:1;fill-rule:evenodd;stroke:#000000;stroke-width:1pt;stroke-opacity:1"
         d="M 0,0 5,-5 -12.5,0 5,5 Z"
         id="path2146" />
    </marker>
    <marker
       style="overflow:visible"
       id="marker2076"
       refX="0"
       refY="0"
       orient="auto"
       inkscape:stockid="Arrow1Lend"
       inkscape:isstock="true"
       inkscape:collect="always">
      <path
         transform="matrix(-0.8,0,0,-0.8,-10,0)"
         style="fill:#000000;fill-opacity:1;fill-rule:evenodd;stroke:#000000;stroke-width:1pt;stroke-opacity:1"
         d="M 0,0 5,-5 -12.5,0 5,5 Z"
         id="path2074" />
    </marker>
    <marker
       style="overflow:visible"
       id="Arrow1Lend"
       refX="0"
       refY="0"
       orient="auto"
       inkscape:stockid="Arrow1Lend"
       inkscape:isstock="true"
       inkscape:collect="always">
      <path
         transform="matrix(-0.8,0,0,-0.8,-10,0)"
         style="fill:#000000;fill-opacity:1;fill-rule:evenodd;stroke:#000000;stroke-width:1pt;stroke-opacity:1"
         d="M 0,0 5,-5 -12.5,0 5,5 Z"
         id="path838" />
    </marker>
    <marker
       style="overflow:visible"
       id="marker2076-5"
       refX="0"
       refY="0"
       orient="auto"
       inkscape:stockid="Arrow1Lend"
       inkscape:isstock="true"
       inkscape:collect="always">
      <path
         transform="matrix(-0.8,0,0,-0.8,-10,0)"
         style="fill:#000000;fill-opacity:1;fill-rule:evenodd;stroke:#000000;stroke-width:1pt;stroke-opacity:1"
         d="M 0,0 5,-5 -12.5,0 5,5 Z"
         id="path2074-5" />
    </marker>
    <marker
       style="overflow:visible"
       id="Arrow1Lend-3"
       refX="0"
       refY="0"
       orient="auto"
       inkscape:stockid="Arrow1Lend"
       inkscape:isstock="true"
       inkscape:collect="always">
      <path
         transform="matrix(-0.8,0,0,-0.8,-10,0)"
         style="fill:#000000;fill-opacity:1;fill-rule:evenodd;stroke:#000000;stroke-width:1pt;stroke-opacity:1"
         d="M 0,0 5,-5 -12.5,0 5,5 Z"
         id="path838-0" />
    </marker>
  </defs>
  <sodipodi:namedview
     id="base"
     pagecolor="#ffffff"
     bordercolor="#666666"
     borderopacity="1.0"
     inkscape:pageopacity="0.0"
     inkscape:pageshadow="2"
     inkscape:zoom="0.35"
     inkscape:cx="768.68922"
     inkscape:cy="987.76123"
     inkscape:document-units="mm"
     inkscape:current-layer="layer1"
     inkscape:document-rotation="0"
     showgrid="false"
     inkscape:window-width="1639"
     inkscape:window-height="1040"
     inkscape:window-x="2262"
     inkscape:window-y="28"
     inkscape:window-maximized="0"
     fit-margin-top="0"
     fit-margin-left="0"
     fit-margin-right="0"
     fit-margin-bottom="0" />
  <metadata
     id="metadata1434">
    <rdf:RDF>
      <cc:Work
         rdf:about="">
        <dc:format>image/svg+xml</dc:format>
        <dc:type
           rdf:resource="http://purl.org/dc/dcmitype/StillImage" />
        <dc:title></dc:title>
      </cc:Work>
    </rdf:RDF>
  </metadata>
  <g
     inkscape:label="Layer 1"
     inkscape:groupmode="layer"
     id="layer1"
     transform="translate(225.54717,5.4496496)">
    <circle
       style="fill:#000000;fill-opacity:1;stroke:#000000;stroke-width:0.210485"
       id="path2000"
       cx="23.056545"
       cy="69.925583"
       r="4.5629711" />
    <circle
       style="fill:#000000;fill-opacity:1;stroke:#000000;stroke-width:0.210485"
       id="path2000-8"
       cx="113.39285"
       cy="120.57442"
       r="4.5629711" />
    <circle
       style="fill:#000000;fill-opacity:1;stroke:#000000;stroke-width:0.210485"
       id="path2000-4"
       cx="109.61309"
       cy="5.2916675"
       r="4.5629711" />
    <text
       xml:space="preserve"
       style="font-size:7.05556px;line-height:1.25;font-family:sans-serif;letter-spacing:0px;word-spacing:0px;stroke-width:0.264583"
       x="8.6934557"
       y="83.15477"
       id="text2046"><tspan
         sodipodi:role="line"
         id="tspan2044"
         x="8.6934557"
         y="83.15477"
         style="stroke-width:0.264583">a</tspan></text>
    <text
       xml:space="preserve"
       style="font-size:7.05556px;line-height:1.25;font-family:sans-serif;letter-spacing:0px;word-spacing:0px;stroke-width:0.264583"
       x="109.23512"
       y="139.85118"
       id="text2050"><tspan
         sodipodi:role="line"
         id="tspan2048"
         x="109.23512"
         y="139.85118"
         style="stroke-width:0.264583">b</tspan></text>
    <text
       xml:space="preserve"
       style="font-size:7.05556px;line-height:1.25;font-family:sans-serif;letter-spacing:0px;word-spacing:0px;stroke-width:0.264583"
       x="125.11012"
       y="-1.5119029"
       id="text2054"><tspan
         sodipodi:role="line"
         id="tspan2052"
         x="125.11012"
         y="-1.5119029"
         style="stroke-width:0.264583">c</tspan></text>
    <path
       style="fill:none;stroke:#000000;stroke-width:1;stroke-linecap:butt;stroke-linejoin:miter;stroke-miterlimit:4;stroke-dasharray:none;stroke-opacity:1;marker-end:url(#Arrow1Lend)"
       d="M 23.056546,69.925594 106.58928,6.8035717"
       id="path2056" />
    <path
       style="fill:none;stroke:#000000;stroke-width:1;stroke-linecap:butt;stroke-linejoin:miter;stroke-miterlimit:4;stroke-dasharray:none;stroke-opacity:1;marker-end:url(#marker2076)"
       d="M 23.056546,69.925594 114.90476,120.95238"
       id="path2072" />
    <text
       xml:space="preserve"
       style="font-size:20.9585px;line-height:1.25;font-family:sans-serif;letter-spacing:0px;word-spacing:0px;stroke-width:0.785941"
       x="5.4774227"
       y="22.503571"
       id="text2128"
       transform="scale(1.0359251,0.96532076)"><tspan
         sodipodi:role="line"
         id="tspan2126"
         x="5.4774227"
         y="22.503571"
         style="stroke-width:0.785941">v=c-a</tspan></text>
    <text
       xml:space="preserve"
       style="font-size:18.0604px;line-height:1.25;font-family:sans-serif;letter-spacing:0px;word-spacing:0px;stroke-width:0.677265"
       x="8.5099478"
       y="137.01506"
       id="text2132"
       transform="scale(1.1064242,0.90381248)"><tspan
         sodipodi:role="line"
         id="tspan2130"
         x="8.5099478"
         y="137.01506"
         style="stroke-width:0.677265">u=b-a</tspan></text>
    <text
       xml:space="preserve"
       style="font-size:7.05556px;line-height:1.25;font-family:sans-serif;letter-spacing:0px;word-spacing:0px;stroke-width:0.264583"
       x="27.59226"
       y="78.619049"
       id="text2136"><tspan
         sodipodi:role="line"
         id="tspan2134"
         x="27.59226"
         y="78.619049"
         style="stroke-width:0.264583" /></text>
    <text
       xml:space="preserve"
       style="font-size:14.3289px;line-height:1.25;font-family:sans-serif;letter-spacing:0px;word-spacing:0px;stroke-width:0.537335"
       x="-228.77051"
       y="41.847179"
       id="text2140"
       transform="scale(0.989056,1.0110651)"><tspan
         sodipodi:role="line"
         id="tspan2138"
         x="-228.77051"
         y="41.847179"
         style="stroke-width:0.537335">u.v = |u||v|cos(angle)</tspan><tspan
         sodipodi:role="line"
         x="-228.77051"
         y="59.758305"
         style="stroke-width:0.537335"
         id="tspan2264">cos(angle) = u.v/(|u||v|)</tspan><tspan
         sodipodi:role="line"
         x="-228.77051"
         y="77.669434"
         style="stroke-width:0.537335"
         id="tspan2266">angle=arccos(u.v/(|u||v|))</tspan></text>
    <path
       style="fill:none;stroke:#000000;stroke-width:0.264583px;stroke-linecap:butt;stroke-linejoin:miter;stroke-opacity:1"
       d="m 36.663689,57.452379 c 1.45236,2.4327 2.75272,4.889135 4.53572,7.181555 0.32817,0.42194 0.89487,0.65582 1.13392,1.13393 0.35818,0.71636 0.12136,2.25393 0.37798,3.02381 0.14365,0.43095 0.63116,0.69713 0.75595,1.13392 0.21547,0.75414 0.68515,5.27968 0.37798,6.04762 -0.16871,0.42178 -0.58724,0.71215 -0.75595,1.13393 -0.0936,0.23396 0.11269,0.53057 0,0.75595 -0.0563,0.11269 -0.28889,-0.0891 -0.37798,0 -0.3862,0.38621 -1.88988,2.22697 -1.88988,2.64584"
       id="path2192" />
    <path
       style="fill:none;stroke:#000000;stroke-width:0.264583px;stroke-linecap:butt;stroke-linejoin:miter;stroke-opacity:1"
       d="M 106.58928,6.8035707 59.720229,90.714284"
       id="path2408" />
    <path
       style="fill:none;stroke:#000000;stroke-width:1;stroke-linecap:butt;stroke-linejoin:miter;stroke-miterlimit:4;stroke-dasharray:none;stroke-opacity:1"
       d="M 106.58928,6.8035707 114.90476,120.95238"
       id="path2416" />
    <path
       style="fill:none;stroke:#000000;stroke-width:0.264583px;stroke-linecap:butt;stroke-linejoin:miter;stroke-opacity:1"
       d="m 54.617559,86.934524 4.7247,-7.18155 4.346728,2.64583"
       id="path2418" />
    <text
       xml:space="preserve"
       style="font-size:7.05556px;line-height:1.25;font-family:sans-serif;letter-spacing:0px;word-spacing:0px;stroke-width:0.264583"
       x="43.845234"
       y="62.744041"
       id="text2422"><tspan
         sodipodi:role="line"
         id="tspan2420"
         x="43.845234"
         y="62.744041"
         style="stroke-width:0.264583">theta</tspan></text>
    <text
       xml:space="preserve"
       style="font-size:7.05556px;line-height:1.25;font-family:sans-serif;letter-spacing:0px;word-spacing:0px;stroke-width:0.264583"
       x="41.199398"
       y="100.1637"
       id="text2426"><tspan
         sodipodi:role="line"
         id="tspan2424"
         x="41.199398"
         y="100.1637"
         style="stroke-width:0.264583">base</tspan></text>
    <text
       xml:space="preserve"
       style="font-size:7.05556px;line-height:1.25;font-family:sans-serif;letter-spacing:0px;word-spacing:0px;stroke-width:0.264583"
       x="43.197536"
       y="147.30946"
       id="text2430"><tspan
         sodipodi:role="line"
         id="tspan2428"
         x="43.197536"
         y="147.30946"
         style="stroke-width:0.264583">base = |u|</tspan><tspan
         sodipodi:role="line"
         x="43.197536"
         y="156.12891"
         style="stroke-width:0.264583"
         id="tspan2432">height = |v|sin(theta)</tspan></text>
    <text
       xml:space="preserve"
       style="font-size:7.05556px;line-height:1.25;font-family:sans-serif;letter-spacing:0px;word-spacing:0px;stroke-width:0.264583"
       x="45.908207"
       y="167.84334"
       id="text2436"><tspan
         sodipodi:role="line"
         id="tspan2434"
         x="45.908207"
         y="167.84334"
         style="stroke-width:0.264583">(1/2)|u||v|sin(theta)</tspan></text>
    <text
       xml:space="preserve"
       style="font-size:14.9306px;line-height:1.25;font-family:sans-serif;letter-spacing:0px;word-spacing:0px;stroke-width:0.559897"
       x="8.2605858"
       y="216.97929"
       id="text2482"
       transform="scale(1.044595,0.95730882)"><tspan
         sodipodi:role="line"
         id="tspan2480"
         x="8.2605858"
         y="216.97929"
         style="stroke-width:0.559897">|uxv|=|u||v|sin(theta)</tspan></text>
    <path
       style="fill:none;stroke:#000000;stroke-width:1;stroke-linecap:butt;stroke-linejoin:miter;stroke-miterlimit:4;stroke-dasharray:none;stroke-opacity:1;marker-end:url(#marker2076-5)"
       d="M 106.58928,6.8035707 198.43749,57.830356"
       id="path2072-9" />
    <path
       style="fill:none;stroke:#000000;stroke-width:1;stroke-linecap:butt;stroke-linejoin:miter;stroke-miterlimit:4;stroke-dasharray:none;stroke-opacity:1;marker-end:url(#Arrow1Lend-3)"
       d="M 114.90476,120.95238 198.43749,57.830359"
       id="path2056-6" />
    <text
       xml:space="preserve"
       style="font-size:11.8676px;line-height:1.25;font-family:sans-serif;letter-spacing:0px;word-spacing:0px;stroke-width:0.445033"
       x="63.149113"
       y="202.50818"
       id="text2732"
       transform="scale(0.88902236,1.1248311)"><tspan
         sodipodi:role="line"
         id="tspan2730"
         x="63.149113"
         y="202.50818"
         style="stroke-width:0.445033">area = (1/2)|uxv|</tspan></text>
    <path
       style="fill:none;stroke:#000000;stroke-width:0.264583px;stroke-linecap:butt;stroke-linejoin:miter;stroke-opacity:1;marker-start:url(#Arrow2Lstart);marker-end:url(#marker2148)"
       d="M 140.22916,264.58333 48.002975,282.72618 134.55952,259.66964"
       id="path2734" />
    <ellipse
       style="fill:#000000;fill-opacity:1;stroke:#000000;stroke-width:1;stroke-miterlimit:4;stroke-dasharray:none"
       id="path2792"
       cx="-16.819941"
       cy="408.97021"
       rx="4.3467264"
       ry="4.1577382" />
    <ellipse
       style="fill:#000000;fill-opacity:1;stroke:#000000;stroke-width:1;stroke-miterlimit:4;stroke-dasharray:none"
       id="path2792-3"
       cx="82.020836"
       cy="469.06845"
       rx="4.3467264"
       ry="4.1577382" />
    <ellipse
       style="fill:#000000;fill-opacity:1;stroke:#000000;stroke-width:1;stroke-miterlimit:4;stroke-dasharray:none"
       id="path2792-7"
       cx="148.54465"
       cy="411.99405"
       rx="4.3467264"
       ry="4.1577382" />
    <ellipse
       style="fill:#000000;fill-opacity:1;stroke:#000000;stroke-width:1;stroke-miterlimit:4;stroke-dasharray:none"
       id="path2792-5"
       cx="6.8035698"
       cy="327.70535"
       rx="4.3467264"
       ry="4.1577382" />
    <text
       xml:space="preserve"
       style="font-size:7.05556px;line-height:1.25;font-family:sans-serif;letter-spacing:0px;word-spacing:0px;stroke-width:0.264583"
       x="-39.6875"
       y="396.875"
       id="text2823"><tspan
         sodipodi:role="line"
         id="tspan2821"
         x="-39.6875"
         y="396.875"
         style="stroke-width:0.264583">a</tspan></text>
    <text
       xml:space="preserve"
       style="font-size:7.05556px;line-height:1.25;font-family:sans-serif;letter-spacing:0px;word-spacing:0px;stroke-width:0.264583"
       x="72.949409"
       y="491.36908"
       id="text2827"><tspan
         sodipodi:role="line"
         id="tspan2825"
         x="72.949409"
         y="491.36908"
         style="stroke-width:0.264583">b</tspan></text>
    <text
       xml:space="preserve"
       style="font-size:7.05556px;line-height:1.25;font-family:sans-serif;letter-spacing:0px;word-spacing:0px;stroke-width:0.264583"
       x="161.01785"
       y="401.41074"
       id="text2831"><tspan
         sodipodi:role="line"
         id="tspan2829"
         x="161.01785"
         y="401.41074"
         style="stroke-width:0.264583">c</tspan></text>
    <text
       xml:space="preserve"
       style="font-size:7.05556px;line-height:1.25;font-family:sans-serif;letter-spacing:0px;word-spacing:0px;stroke-width:0.264583"
       x="16.252979"
       y="319.01187"
       id="text2835"><tspan
         sodipodi:role="line"
         id="tspan2833"
         x="16.252979"
         y="319.01187"
         style="stroke-width:0.264583">d</tspan></text>
    <path
       style="fill:none;stroke:#000000;stroke-width:0.264583px;stroke-linecap:butt;stroke-linejoin:miter;stroke-opacity:1"
       d="M -18.898809,408.97024 80.508926,469.8244 150.8125,411.2381 -15.497024,407.83631"
       id="path2837" />
    <text
       xml:space="preserve"
       style="font-size:20.9585px;line-height:1.25;font-family:sans-serif;letter-spacing:0px;word-spacing:0px;stroke-width:0.785942"
       x="-89.746635"
       y="524.50543"
       id="text2128-9"
       transform="scale(1.0359251,0.96532075)"><tspan
         sodipodi:role="line"
         id="tspan2126-2"
         x="-89.746635"
         y="524.50543"
         style="stroke-width:0.785942">v=c-a</tspan></text>
    <text
       xml:space="preserve"
       style="font-size:18.0604px;line-height:1.25;font-family:sans-serif;letter-spacing:0px;word-spacing:0px;stroke-width:0.677265"
       x="-84.062828"
       y="534.75537"
       id="text2132-3"
       transform="scale(1.1064242,0.90381248)"><tspan
         sodipodi:role="line"
         id="tspan2130-7"
         x="-84.062828"
         y="534.75537"
         style="stroke-width:0.677265">u=b-a</tspan></text>
    <path
       style="fill:none;stroke:#000000;stroke-width:0.264583px;stroke-linecap:butt;stroke-linejoin:miter;stroke-opacity:1"
       d="m 46.113094,418.7976 c -1.970736,-0.34557 -2.008492,0.0593 -3.401785,0.75597 -0.22538,0.11269 -0.530572,-0.11269 -0.755952,0 -0.453573,0.22677 -0.680358,0.90715 -1.13393,1.13392 -0.6691,0.33454 -0.129156,-0.56221 -0.755952,0.37799 -0.288155,0.43222 -0.08982,1.07966 -0.377975,1.51191 -0.156274,0.23439 -0.556742,0.17875 -0.755952,0.37795 -0.572683,0.57269 -0.93404,2.22425 -1.13393,3.02382 -0.707472,2.82988 1.444495,4.90839 3.023809,6.80358 1.328079,1.59369 2.151917,3.14042 3.779763,4.5357 1.431092,1.22666 3.327824,1.25555 4.913691,1.88989 0.42178,0.16872 0.712147,0.58724 1.133928,0.75594 0.302633,0.12107 1.562068,0 1.889881,0 2.121183,0 3.325273,-0.30144 4.913691,-1.88987 0.08909,-0.0891 -0.08909,-0.2889 0,-0.37798 1.405001,-1.40499 2.191266,-1.50694 2.645833,-3.77976 0.275093,-1.37546 -0.445193,-3.20013 0,-4.53572 0.424236,-1.2727 0.377976,-2.40747 0.377976,-3.77976 -1.417384,-0.007 -3.209399,4.72132 -3.779761,5.29168 -0.372806,0.3728 -1.236447,0.48049 -1.511905,0.75595 -0.17818,0.17818 0,0.50397 0,0.75595"
       id="path2875" />
    <path
       style="fill:none;stroke:#000000;stroke-width:0.264583px;stroke-linecap:butt;stroke-linejoin:miter;stroke-opacity:1"
       d="m 60.47619,425.60118 c 2.988064,0.38576 7.987633,7.55954 9.071427,7.55954"
       id="path2877" />
    <path
       style="fill:none;stroke:#000000;stroke-width:1;stroke-linecap:butt;stroke-linejoin:miter;stroke-miterlimit:4;stroke-dasharray:none;stroke-opacity:1;marker-end:url(#marker2885)"
       d="m -18.898809,408.97024 7.181548,-80.50892"
       id="path2881" />
    <text
       xml:space="preserve"
       style="font-size:12.5044px;line-height:1.25;font-family:sans-serif;letter-spacing:0px;word-spacing:0px;stroke-width:1.77227;stroke-miterlimit:4;stroke-dasharray:none"
       x="-132.1102"
       y="326.53729"
       id="text2949"
       transform="scale(0.90991389,1.0990051)"><tspan
         sodipodi:role="line"
         id="tspan2947"
         x="-132.1102"
         y="326.53729"
         style="stroke-width:1.77227;stroke-miterlimit:4;stroke-dasharray:none">n = (b-a)x(c-a)</tspan></text>
    <path
       style="fill:none;stroke:#000000;stroke-width:1;stroke-linecap:butt;stroke-linejoin:miter;stroke-miterlimit:4;stroke-dasharray:none;stroke-opacity:1;marker-end:url(#marker2967)"
       d="m -18.898809,408.97024 24.946428,-79.375"
       id="path2963" />
    <path
       style="fill:none;stroke:#000000;stroke-width:0.264583px;stroke-linecap:butt;stroke-linejoin:miter;stroke-opacity:1"
       d="m -13.229167,353.78572 c 0.226288,-1.07942 1.783698,0.48416 2.267858,0 0.08909,-0.0891 -0.08909,-0.2889 0,-0.37798 0.109454,-0.10946 2.5363781,-0.10946 2.645833,0 0.2544585,0.25445 0.1993596,0.47765 0.7559522,0.75594 0.2253816,0.11268 0.530571,-0.11269 0.7559524,0 1.5730463,0.78653 -0.4040698,-0.0262 0.3779763,0.75597 0.1889879,0.18899 0.9449403,-0.189 1.1339285,0 0.4455398,0.44553 0.881757,1.13392 1.5119048,1.13392"
       id="path3064" />
    <text
       xml:space="preserve"
       style="font-size:12.2836px;line-height:1.25;font-family:sans-serif;letter-spacing:0px;word-spacing:0px;stroke-width:0.460633"
       x="39.039135"
       y="335.38211"
       id="text3080"
       transform="scale(0.94812307,1.0547154)"><tspan
         sodipodi:role="line"
         id="tspan3078"
         x="39.039135"
         y="335.38211"
         style="stroke-width:0.460633">(d-a).((b-a)x(c-a))</tspan></text>
    <ellipse
       style="fill:#000000;fill-opacity:1;stroke:#000000;stroke-width:1;stroke-miterlimit:4;stroke-dasharray:none"
       id="path2792-5-0"
       cx="102.43154"
       cy="384.0238"
       rx="4.3467264"
       ry="4.1577382" />
    <path
       style="fill:none;stroke:#000000;stroke-width:1;stroke-linecap:butt;stroke-linejoin:miter;stroke-miterlimit:4;stroke-dasharray:none;stroke-opacity:1;marker-end:url(#marker3101)"
       d="M -15.497024,407.83631 98.651784,385.15774"
       id="path3097" />
    <path
       style="fill:none;stroke:#000000;stroke-width:0.264583px;stroke-linecap:butt;stroke-linejoin:miter;stroke-opacity:1"
       d="m -14.741071,365.88094 c 4.38312,-1.11959 9.0827102,1.00589 13.2291663,2.26787 1.88442652,0.57351 5.6793289,1.70572 7.5595237,2.64584 0.3187375,0.15935 0.437215,0.59658 0.7559524,0.75594 0.2253814,0.11268 0.5219909,-0.0936 0.7559524,0 1.0486345,0.41947 2.0346485,1.3953 3.0238092,1.88989 1.190281,0.59513 2.338308,1.00364 3.401786,1.88986 2.607473,2.1729 4.425783,5.27109 6.425595,7.9375 0.663999,0.88535 0.316424,1.99824 0.755952,3.02382 1.613064,3.76381 4.157739,9.75815 4.157739,12.47323"
       id="path3175" />
    <ellipse
       style="fill:#000000;fill-opacity:1;stroke:#000000;stroke-width:1;stroke-miterlimit:4;stroke-dasharray:none"
       id="path2792-5-0-0"
       cx="47.625"
       cy="522.74109"
       rx="4.3467264"
       ry="4.1577382" />
    <path
       style="fill:none;stroke:#000000;stroke-width:1;stroke-linecap:butt;stroke-linejoin:miter;stroke-miterlimit:4;stroke-dasharray:none;stroke-opacity:1;marker-end:url(#marker3181)"
       d="M -15.497024,407.83631 46.491072,524.63093"
       id="path3270" />
    <path
       style="fill:none;stroke:#000000;stroke-width:0.264583px;stroke-linecap:butt;stroke-linejoin:miter;stroke-opacity:1"
       d="m -16.252976,387.42559 c 1.828904,0.0914 4.031538,0.79782 5.669643,1.88989 0.104831,0.0699 -0.08909,0.28887 0,0.37796 0.08753,0.0875 1.3862987,0.71408 1.5119046,0.75596 0.8085214,0.26951 0.6642822,0.0954 1.5119046,0.37799 0.6047621,0.20158 0.907143,1.31029 1.5119048,1.51188 0.2390531,0.0797 0.5168992,-0.0797 0.7559524,0 0.8234254,-0.14126 0.1259919,0.62997 0.3779761,0.75597 0.2253816,0.11268 0.530571,-0.11269 0.7559524,0 0.063233,0.0316 0.736559,1.03457 1.1339287,1.13392 0.3666906,0.0917 0.7753488,-0.11954 1.1339285,0 0.034235,0.0114 0.3242408,1.48503 0.3779762,1.51191 0.2253814,0.11269 0.57777264,-0.17817 0.75595232,0 0.1781797,0.17817 -0.0796844,0.51689 0,0.75594 0.26160261,0.78481 1.11079985,1.84364 1.51190476,2.64583 0.21441368,0.42884 0.89737102,2.03132 1.13392852,2.26788 0.199211,0.19921 0.5567415,0.17875 0.7559524,0.37796 0.3174296,0.31744 0.9829604,3.62881 1.1339285,3.77976 0.08909,0.0891 0.2888863,-0.0891 0.3779763,0 0.3186258,0.31863 0.1932916,2.84773 0.3779761,3.4018 0.056345,0.16904 0.2982918,0.2186 0.3779763,0.37798 0.6568983,1.31379 -0.4696759,3.50464 0,4.91368 1.1325863,3.39776 0.3268155,8.09099 -0.7559524,11.33928 -0.113393,0.34017 0.1133928,0.79375 0,1.13392 -0.1126908,0.33809 -0.5965838,0.43723 -0.7559524,0.75597 -0.1573493,0.3147 0.2397548,1.27214 0,1.51191 -0.08909,0.0891 -0.2888864,-0.0891 -0.3779763,0 -0.5079218,0.50792 -0.4487838,1.65351 -0.7559523,2.26785 -0.4380031,0.87601 -1.2044596,1.72349 -1.51190472,2.64583 -0.0796844,0.23905 0.11269073,0.53057 0,0.75594 C 0.71910564,434.74632 0.0820137,434.96857 0,435.05059 c -0.17817968,0.17819 0.11269073,0.53056 0,0.75596 -0.78652316,1.57303 0.02609381,-0.40407 -0.75595238,0.37796 -0.0456547,0.0457 -0.37797622,1.71807 -0.37797622,1.88989"
       id="path3284" />
    <text
       xml:space="preserve"
       style="font-size:10.995px;line-height:1.25;font-family:sans-serif;letter-spacing:0px;word-spacing:0px;stroke-width:0.412312"
       x="125.38527"
       y="426.54932"
       id="text3288"
       transform="scale(0.93619126,1.0681578)"><tspan
         sodipodi:role="line"
         id="tspan3286"
         x="125.38527"
         y="426.54932"
         style="stroke-width:0.412312">cos(angle) &gt; 0,  above</tspan><tspan
         sodipodi:role="line"
         x="125.38527"
         y="440.29306"
         style="stroke-width:0.412312"
         id="tspan3290">cos(angle) = 0, on plane</tspan><tspan
         sodipodi:role="line"
         x="125.38527"
         y="454.0368"
         style="stroke-width:0.412312"
         id="tspan3292">cos(angle) &lt; 0, below</tspan></text>
    <text
       xml:space="preserve"
       style="font-size:12.6983px;line-height:1.25;font-family:sans-serif;letter-spacing:0px;word-spacing:0px;stroke-width:0.476186"
       x="76.18483"
       y="440.24237"
       id="text3296"
       transform="scale(0.85345802,1.1717038)"><tspan
         sodipodi:role="line"
         id="tspan3294"
         x="76.18483"
         y="440.24237"
         style="stroke-width:0.476186">Math.sign( (d-a).((b-a)x(c-a)) )</tspan></text>
  </g>
</svg>
